<?xml version="1.0" encoding="UTF-8" standalone="no"?>
<svg width="114px" height="29px" viewBox="0 -20 114 39" version="1.1" xmlns="http://www.w3.org/2000/svg" xmlns:xlink="http://www.w3.org/1999/xlink" xmlns:sketch="http://www.bohemiancoding.com/sketch/ns">
    <!-- Generator: Sketch 3.2.2 (9983) - http://www.bohemiancoding.com/sketch -->
    <title>logo</title>
    <desc>Created with Sketch.</desc>
    <defs></defs>
    <g id="Page-1" stroke="none" stroke-width="1" fill="none" fill-rule="evenodd" sketch:type="MSPage">
        <g id="logo" sketch:type="MSLayerGroup" transform="translate(0.000000, -1.000000)" fill="#464646">
            <g id="Group" sketch:type="MSShapeGroup">
                <path d="M14.5,16.8 C14.1,17.3 13.6,17.8 13,18.2 C12.4,18.6 11.7,18.8 11,19 C10.3,19.2 9.4,19.3 8.5,19.3 C7.2,19.3 6.1,19.1 5.1,18.7 C4.1,18.3 3.2,17.7 2.5,16.9 C1.8,16.1 1.2,15.1 0.8,14 C0.4,12.9 0.2,11.6 0.2,10.2 C0.2,8.7 0.4,7.3 0.8,6.2 C1.2,5 1.8,4.1 2.6,3.3 C3.4,2.5 4.2,1.9 5.2,1.6 C6.2,1.2 7.3,1 8.4,1 C9,1 9.5,1 10,1.1 C10.5,1.2 10.9,1.3 11.3,1.4 C11.7,1.5 12.1,1.7 12.4,1.9 C12.7,2.1 13.1,2.3 13.4,2.6 C13.8,3 14.2,3.4 14.5,3.9 C14.9,4.4 15.2,4.9 15.4,5.5 L11.3,7.5 C11.2,7.1 11,6.8 10.8,6.5 C10.6,6.2 10.4,5.9 10.2,5.7 C10,5.5 9.7,5.3 9.4,5.1 C9.1,5 8.7,4.9 8.3,4.9 C7.8,4.9 7.3,5 6.9,5.2 C6.5,5.4 6.1,5.8 5.8,6.2 C5.5,6.6 5.3,7.2 5.1,7.8 C5.1,8.4 5,9.2 5,10 C5,10.8 5.1,11.5 5.3,12.2 C5.5,12.8 5.7,13.4 6,13.8 C6.3,14.2 6.7,14.6 7.1,14.8 C7.5,15 8,15.2 8.5,15.2 C9.2,15.2 9.9,15 10.3,14.6 C10.8,14.2 11.2,13.6 11.6,12.7 L15.6,14.9 C15.3,15.6 14.9,16.2 14.5,16.8 L14.5,16.8 Z" id="Shape"></path>
                <path d="M17.3,18.9 L17.3,1.1 L30,1.1 L30,5.2 L22.1,5.2 L22.1,8.1 L28.5,8.1 L28.5,11.9 L22.1,11.9 L22.1,14.8 L30.5,14.8 L30.5,18.9 L17.3,18.9 L17.3,18.9 Z" id="Shape"></path>
                <path d="M43.1,18.9 L36.8,8.9 L36.8,18.9 L32.1,18.9 L32.1,1.1 L37,1.1 L42.8,10.5 L42.8,1.1 L47.5,1.1 L47.5,18.9 L43.1,18.9 L43.1,18.9 Z" id="Shape"></path>
                <path d="M58.9,5.2 L58.9,18.9 L54.1,18.9 L54.1,5.2 L49.1,5.2 L49.1,1.1 L63.8,1.1 L63.8,5.2 L58.9,5.2 L58.9,5.2 Z" id="Shape"></path>
                <path d="M75.5,18.9 L72.1,12.7 L70.4,12.7 L70.4,18.9 L65.7,18.9 L65.7,1.1 L73.6,1.1 C74.5,1.1 75.4,1.2 76.2,1.5 C77,1.7 77.7,2.1 78.3,2.5 C78.9,3 79.3,3.5 79.7,4.2 C80,4.9 80.2,5.7 80.2,6.7 C80.2,8 79.9,9 79.4,9.9 C78.9,10.8 78.1,11.5 76.9,11.9 L80.9,18.8 L75.5,18.8 L75.5,18.9 Z M75.4,6.9 C75.4,6.3 75.2,5.8 74.8,5.5 C74.4,5.2 73.8,5 72.8,5 L70.4,5 L70.4,8.8 L72.8,8.8 C73.7,8.8 74.4,8.6 74.8,8.3 C75.2,8 75.4,7.5 75.4,6.9 L75.4,6.9 Z" id="Shape"></path>
                <path d="M95,18.9 L93.8,15.9 L87.9,15.9 L86.8,18.9 L81.8,18.9 L88.7,1.1 L93.1,1.1 L100,18.9 L95,18.9 L95,18.9 Z M90.8,6.8 L88.9,12.1 L92.6,12.1 L90.8,6.8 L90.8,6.8 Z" id="Shape"></path>
                <path d="M101.1,18.9 L101.1,1.1 L105.9,1.1 L105.9,14.8 L113.9,14.8 L113.9,18.9 L101.1,18.9 L101.1,18.9 Z" id="Shape"></path>
            </g>
        </g>
    </g>
</svg>