<?xml version="1.0" standalone="no"?>
<!DOCTYPE svg PUBLIC "-//W3C//DTD SVG 1.1//EN" "http://www.w3.org/Graphics/SVG/1.1/DTD/svg11.dtd" >
<svg xmlns="http://www.w3.org/2000/svg">
<metadata></metadata>
<defs>
<font id="pill_gothic_300mgmedium" horiz-adv-x="1042" >
<font-face units-per-em="2048" ascent="1638" descent="-410" />
<missing-glyph horiz-adv-x="440" />
<glyph unicode="&#xdf;" horiz-adv-x="1173" d="M92 879v157h92v187q0 127 82.5 208.5t204.5 81.5q96 0 180 -43l-45 -159q-47 20 -88 20q-65 0 -100 -39t-35 -110v-146h674v-157l-187 -271h33q93 -7 138.5 -71t45.5 -150v-162q0 -105 -77 -172t-205 -67q-171 0 -252 123l88 114q15 -31 55 -53.5t80 -22.5q111 0 111 91 v124q0 43 -22 73t-64 30h-144v137l191 272h-461v-874h-203v879h-92z" />
<glyph unicode="&#xfb01;" horiz-adv-x="1095" d="M59 907v148h115v133q0 96 58 164t149.5 99.5t206.5 31.5q149 0 319 -62l-33 -147q-27 4 -73 13t-86.5 13.5t-93.5 4.5q-240 0 -240 -152v-98h217v-148h-217v-907h-207v907h-115zM770 0v1053h207v-1053h-207z" />
<glyph unicode="&#xfb02;" horiz-adv-x="1142" d="M59 907v148h115v133q0 96 58 164t149.5 99.5t206.5 31.5q149 0 319 -62l-2 -8h84v-1413h-209v1290q-84 15 -159 15q-240 0 -240 -152v-98h217v-148h-217v-907h-207v907h-115z" />
<glyph horiz-adv-x="0" />
<glyph horiz-adv-x="682" />
<glyph unicode="&#xd;" horiz-adv-x="440" />
<glyph unicode=" "  horiz-adv-x="440" />
<glyph unicode="&#x09;" horiz-adv-x="440" />
<glyph unicode="&#xa0;" horiz-adv-x="440" />
<glyph unicode="!" horiz-adv-x="567" d="M182 0v225h244v-225h-244zM193 1393h219l-17 -910h-188z" />
<glyph unicode="&#x22;" horiz-adv-x="626" d="M115 1401h143l-8 -453h-127zM369 1401h141l-8 -453h-125z" />
<glyph unicode="#" horiz-adv-x="1302" d="M109 287l2 135h268l72 397h-279l4 133h303l56 318h155l-55 -318h184l58 318h153l-53 -318h215l-2 -133h-242l-69 -397h241l-2 -135h-268l-47 -287h-158l49 287h-184l-51 -287h-156l47 287h-241zM537 422h184l70 397h-185z" />
<glyph unicode="$" horiz-adv-x="925" d="M53 162l113 137q46 -62 119.5 -97.5t158.5 -35.5q86 0 139.5 47.5t53.5 140.5v140l-528 286v283q0 150 75 235.5t207 106.5v192h176v-190q157 -20 291 -131l-90 -158q-118 109 -258 109q-184 0 -184 -176v-168l530 -283v-256q0 -149 -78.5 -237.5t-212.5 -112.5v-242 h-178v236q-104 11 -192 56.5t-142 117.5z" />
<glyph unicode="%" horiz-adv-x="1513" d="M127 1008v180q0 100 81 162.5t200 62.5q112 0 194 -64t82 -161v-180q0 -100 -80 -163t-196 -63q-122 0 -201.5 61.5t-79.5 164.5zM233 0l861 1393h182l-852 -1393h-191zM283 1024q0 -44 35 -69t90 -25q48 0 85 28t37 68v150q0 40 -35.5 64t-86.5 24q-50 0 -87.5 -27 t-37.5 -66v-147zM844 195v204q0 99 77 158t195 59q112 0 190 -57.5t78 -155.5v-200q0 -101 -75.5 -160t-192.5 -59q-111 0 -191.5 58.5t-80.5 152.5zM991 223q0 -42 36.5 -70t88.5 -28q48 0 85.5 29t37.5 69v148q0 45 -35 71.5t-88 26.5q-51 0 -88 -28.5t-37 -69.5v-148z " />
<glyph unicode="&#x26;" horiz-adv-x="1323" d="M113 332q0 34 7.5 66t27.5 66t35.5 57.5t52.5 61t56 56.5t68 64t68 63l6 6l-160 201v188q0 112 86.5 183t210.5 71q140 0 218.5 -75t78.5 -214q0 -104 -50 -188t-144 -176l235 -287l185 203l135 -121l-201 -227l203 -246l-137 -123l-189 232l-12 -15 q-81 -100 -176.5 -149t-220.5 -49q-180 0 -281.5 88.5t-101.5 263.5zM326 330q0 -74 40.5 -118t129.5 -44q76 0 136.5 36t137.5 118l16 18l-237 293l-6 -6q-22 -22 -66 -63.5t-63 -61.5t-44 -51.5t-34.5 -60t-9.5 -60.5zM453 1032l108 -135q117 117 117 221q0 65 -27.5 95 t-87.5 30q-49 0 -79.5 -28t-30.5 -72v-111z" />
<glyph unicode="'" horiz-adv-x="462" d="M147 1454h166l-18 -477h-131z" />
<glyph unicode="(" horiz-adv-x="729" d="M199 215v670q0 227 86 403t233 264l92 -92q-105 -67 -167 -216.5t-62 -358.5v-670q0 -214 61.5 -356.5t167.5 -210.5l-92 -97q-147 87 -233 264t-86 400z" />
<glyph unicode=")" horiz-adv-x="751" d="M147 -360q103 72 164.5 224.5t61.5 364.5v648q0 212 -57 361t-158 218l82 98q144 -87 229.5 -268.5t85.5 -408.5v-648q0 -225 -85.5 -406.5t-229.5 -268.5z" />
<glyph unicode="*" horiz-adv-x="786" d="M96 1182l33 106l207 -67v215h115v-215l204 67l35 -106l-207 -66l127 -174l-90 -68l-127 177l-129 -177l-90 66l127 176z" />
<glyph unicode="+" horiz-adv-x="1150" d="M61 713v153h428v404h166v-404h430v-153h-430v-447h-166v447h-428z" />
<glyph unicode="," horiz-adv-x="448" d="M45 -205q38 56 57 111.5t19 146.5v119h178v-53q0 -79 -12 -142t-35.5 -108.5t-44 -73.5t-51.5 -59z" />
<glyph unicode="-" horiz-adv-x="614" d="M88 500v176h438v-176h-438z" />
<glyph unicode="." horiz-adv-x="512" d="M137 0v225h234v-225h-234z" />
<glyph unicode="/" horiz-adv-x="751" d="M66 -174l466 1567h185l-469 -1567h-182z" />
<glyph unicode="0" horiz-adv-x="1034" d="M106 375v637q0 185 113.5 293t296.5 108q181 0 296.5 -108.5t115.5 -292.5v-637q0 -186 -115 -290.5t-297 -104.5q-184 0 -297 105t-113 290zM313 373q0 -102 55 -155.5t148 -53.5t148 53.5t55 155.5v639q0 215 -203 215q-94 0 -148.5 -56t-54.5 -159v-639z" />
<glyph unicode="1" horiz-adv-x="712" d="M47 1206v187h485v-1393h-206v1206h-279z" />
<glyph unicode="2" horiz-adv-x="915" d="M90 1227q167 170 383 170q73 0 137.5 -20.5t116 -61t81.5 -108t30 -154.5q0 -69 -17 -126.5t-63 -117t-74 -88t-103 -97.5q-22 -21 -34 -32q-81 -71 -124.5 -123.5t-70 -122t-33.5 -164.5h517v-182h-734v98q0 198 73.5 343t250.5 292q48 41 75.5 67t62 67t51 82.5 t16.5 86.5q0 85 -54.5 128.5t-138.5 43.5q-129 0 -243 -131z" />
<glyph unicode="3" horiz-adv-x="974" d="M68 268l180 64q10 -81 71 -122.5t146 -41.5q84 0 135 36t51 113v144q0 82 -60 122t-153 40h-84v172h70q54 0 100 15.5t79.5 56t33.5 100.5v100q0 160 -176 160q-67 0 -120.5 -40.5t-61.5 -119.5l-175 55q15 130 118.5 210.5t250.5 80.5q168 0 269.5 -80t101.5 -243v-109 q0 -93 -51.5 -168t-135.5 -106q201 -70 201 -250v-162q0 -102 -55.5 -173.5t-142.5 -103.5t-195 -32q-156 0 -266.5 75.5t-130.5 206.5z" />
<glyph unicode="4" horiz-adv-x="995" d="M51 301v184l463 908h240v-906h184v-186h-184v-301h-209v301h-494zM248 487h297v572h-21z" />
<glyph unicode="5" horiz-adv-x="968" d="M115 319l194 46q3 -97 52.5 -149t140.5 -52q68 0 116 42t48 111v205q0 76 -49 120t-125 44h-334l67 707h582v-187h-401l-33 -344h164q148 0 241.5 -95.5t93.5 -250.5v-199q0 -103 -54 -181.5t-136.5 -117t-177.5 -38.5q-174 0 -274 87t-115 252z" />
<glyph unicode="6" horiz-adv-x="999" d="M106 332v717q0 162 117 263t293 101q204 0 332 -125l-96 -143q-93 84 -224 84q-94 0 -153.5 -48.5t-59.5 -131.5v-256q42 48 108 76t140 28q144 0 240 -82t96 -231v-269q0 -81 -33 -146t-89 -105.5t-125.5 -62t-145.5 -21.5q-78 0 -149 23t-127.5 66t-90 111t-33.5 152z M315 338q0 -89 56 -132.5t135 -43.5q76 0 131 44t55 132v225q0 84 -53.5 127t-130.5 43q-79 0 -136 -45t-57 -125v-225z" />
<glyph unicode="7" horiz-adv-x="782" d="M10 1194v199h744v-115l-342 -1278h-236l338 1194h-504z" />
<glyph unicode="8" d="M102 311v131q0 95 63 169t150 108q-83 33 -134.5 108.5t-51.5 169.5v76q0 105 54.5 182.5t140 114.5t188.5 37t189 -36.5t141 -114t55 -183.5v-82q0 -87 -57.5 -163.5t-130.5 -108.5q89 -36 153 -106.5t64 -170.5v-131q0 -83 -34.5 -148t-93 -104t-131.5 -59t-155 -20 q-66 0 -126 12.5t-112 39t-90 65t-60 93.5t-22 121zM309 328q0 -85 59.5 -124.5t143.5 -39.5q50 0 94 14.5t76.5 52t32.5 93.5v139q0 77 -58 124.5t-127 47.5h-34q-73 -3 -130 -48t-57 -124v-135zM336 971q0 -72 48.5 -116.5t113.5 -49.5h30q67 5 113.5 48t46.5 118v80 q0 83 -53 127.5t-123 44.5q-71 0 -123.5 -44.5t-52.5 -127.5v-80z" />
<glyph unicode="9" horiz-adv-x="1007" d="M115 778v312q0 97 56.5 172t144.5 113t190 38t190.5 -37.5t145.5 -112.5t57 -173v-785q0 -103 -57 -178.5t-144.5 -111t-191.5 -35.5q-95 0 -187 32t-155 92l74 152q128 -92 268 -92q86 0 146.5 43.5t60.5 124.5v243q-40 -52 -106.5 -80t-131.5 -28q-155 0 -257.5 81.5 t-102.5 229.5zM324 793q0 -73 55 -111.5t131 -38.5q71 0 125.5 40t54.5 108v288q0 67 -56 107.5t-128 40.5t-127 -40.5t-55 -107.5v-286z" />
<glyph unicode=":" horiz-adv-x="542" d="M164 0v246h229v-246h-229zM164 819v246h229v-246h-229z" />
<glyph unicode=";" horiz-adv-x="593" d="M178 -205q38 56 57 111.5t19 146.5v119h178v-53q0 -79 -12 -142t-35.5 -108.5t-44 -73.5t-51.5 -59zM223 811v254h219v-254h-219z" />
<glyph unicode="&#x3c;" horiz-adv-x="1173" d="M111 506l870 555l66 -131l-652 -418l682 -393l-67 -129z" />
<glyph unicode="=" horiz-adv-x="1153" d="M90 424v158h973v-158h-973zM90 860v156h973v-156h-973z" />
<glyph unicode="&#x3e;" horiz-adv-x="1146" d="M113 111l639 407l-627 404l80 131l848 -527l-863 -546z" />
<glyph unicode="?" horiz-adv-x="745" d="M35 1278q62 57 144 96t167 39q336 0 336 -295v-92q0 -29 -8 -56.5t-18 -47.5t-30 -44t-33 -37.5t-38.5 -37.5t-36.5 -35q-61 -61 -83.5 -104.5t-22.5 -120.5v-117h-201v143q0 86 33 143.5t100 123.5q27 25 34.5 32t30.5 31t31.5 38.5t17.5 36.5t9 42v78q0 131 -150 131 q-92 0 -204 -95zM188 0v227h265v-227h-265z" />
<glyph unicode="@" horiz-adv-x="1607" d="M90 535q0 128 23 280q19 128 78 240t148.5 196t214.5 132.5t267 48.5q197 0 354.5 -74t246.5 -206t89 -298q0 -246 -79.5 -378t-255.5 -132q-45 0 -85 10.5t-76.5 37.5t-51.5 69q-48 -62 -128 -103t-167 -41q-124 0 -185 57t-61 148q0 40 16 137t41 179 q35 123 145.5 204.5t237.5 81.5q120 0 190 -53.5t70 -144.5q0 -29 -26 -172q-27 -118 -27 -176q0 -48 31 -82.5t76 -34.5q108 0 159 98t51 297q0 203 -158 332t-407 129q-237 0 -396.5 -145t-186.5 -363q-25 -212 -25 -270q0 -191 165.5 -316t438.5 -125q166 0 322 84 l57 -102q-173 -96 -379 -96q-329 0 -528 155.5t-199 395.5zM567 567q0 -63 33.5 -96t95.5 -33q90 0 159.5 57t82.5 144q2 7 9.5 40t10 45.5t8.5 41.5t8.5 46.5t4.5 40t2 40.5q0 58 -33.5 84.5t-103.5 26.5q-87 0 -158.5 -70.5t-87.5 -161.5q-10 -51 -20.5 -123.5 t-10.5 -81.5z" />
<glyph unicode="A" horiz-adv-x="1040" d="M37 0l379 1407h225l358 -1407h-219l-82 377h-350l-88 -377h-223zM389 551h268l-131 577z" />
<glyph unicode="B" horiz-adv-x="1060" d="M152 0v1393h391q153 0 253.5 -94t100.5 -259v-63q0 -82 -47 -154t-119 -98q94 -39 150.5 -114t56.5 -181v-94q0 -163 -99 -249.5t-257 -86.5h-430zM358 174h191q74 0 127 43.5t53 138.5v88q0 88 -55.5 137.5t-138.5 49.5h-177v-457zM358 795h168q74 0 120 45.5t46 126.5 v63q0 99 -54.5 143t-137.5 44h-142v-422z" />
<glyph unicode="C" horiz-adv-x="929" d="M113 369v647q0 179 119 288t298 109q123 0 209.5 -36.5t151.5 -110.5l-103 -144q-100 107 -243 107q-102 0 -162.5 -60t-60.5 -165v-625q0 -105 63.5 -162t167.5 -57q154 0 240 86l94 -135q-64 -69 -149 -100t-206 -31q-186 0 -302.5 101t-116.5 288z" />
<glyph unicode="D" horiz-adv-x="1097" d="M152 0v1393h352q99 0 181.5 -26t144.5 -77t96.5 -132t34.5 -185v-559q0 -103 -36.5 -183.5t-101.5 -130t-148.5 -75t-182.5 -25.5h-340zM358 184h134q115 0 187.5 56.5t72.5 171.5v565q0 110 -71 169.5t-177 59.5h-146v-1022z" />
<glyph unicode="E" horiz-adv-x="903" d="M154 0v1393h618v-187h-412v-407h304v-181h-304v-434h461v-184h-667z" />
<glyph unicode="F" horiz-adv-x="815" d="M154 0v1393h616v-187h-410v-401h302v-180h-300v-625h-208z" />
<glyph unicode="G" horiz-adv-x="1067" d="M113 373v637q0 190 119.5 296.5t306.5 106.5q128 0 215 -34t157 -95l-77 -154q-46 33 -75.5 49.5t-86 32t-125.5 15.5q-96 0 -160.5 -59t-64.5 -162v-629q0 -93 63 -153t160 -60q130 0 198 51v369h-202v174h409v-625q-166 -153 -405 -153q-187 0 -309.5 107t-122.5 286z " />
<glyph unicode="H" horiz-adv-x="1167" d="M152 0v1393h206v-623h449v623h207v-1393h-207v584h-449v-584h-206z" />
<glyph unicode="I" horiz-adv-x="577" d="M182 0v1393h209v-1393h-209z" />
<glyph unicode="J" horiz-adv-x="923" d="M35 281l205 41v-7q0 -58 45 -102q48 -47 114 -47q76 0 119 37.5t43 115.5v1074h209v-1076q0 -160 -97 -246.5t-263 -86.5q-161 0 -262 78.5t-113 218.5z" />
<glyph unicode="K" horiz-adv-x="1030" d="M154 0v1393h206v-664l365 664h236l-371 -648l422 -745h-242l-321 596l-89 -123v-473h-206z" />
<glyph unicode="L" horiz-adv-x="860" d="M154 0v1393h206v-1209h488v-184h-694z" />
<glyph unicode="M" horiz-adv-x="1376" d="M152 0v1393h233l303 -772l303 772h232v-1393h-207v1044l-268 -706h-123l-267 702v-1040h-206z" />
<glyph unicode="N" horiz-adv-x="1189" d="M152 0v1393h204l488 -1035v1035h192v-1393h-202l-492 1028v-1028h-190z" />
<glyph unicode="O" horiz-adv-x="1105" d="M119 375v635q0 185 118.5 294t305.5 109h32q186 0 305 -109.5t119 -293.5v-635q0 -186 -116.5 -290.5t-307.5 -104.5h-30q-192 0 -309 104t-117 291zM326 377q0 -100 59 -156.5t160 -56.5h30q98 0 158 56.5t60 156.5v629q0 102 -60.5 161.5t-157.5 59.5h-32 q-97 0 -157 -59t-60 -162v-629z" />
<glyph unicode="P" horiz-adv-x="1017" d="M154 0v1393h399q170 0 279.5 -101.5t109.5 -277.5v-154q0 -114 -52.5 -194.5t-137.5 -118t-193 -37.5h-199v-510h-206zM360 684h183q84 0 137 49.5t53 149.5v110q0 96 -55 154.5t-135 58.5h-183v-522z" />
<glyph unicode="Q" horiz-adv-x="1091" d="M115 375v635q0 185 118.5 294t305.5 109h32q186 0 305 -109.5t119 -293.5v-635q0 -181 -112 -287l108 -143l-110 -86l-119 153q-88 -32 -191 -32h-30q-192 0 -309 104t-117 291zM322 377q0 -100 59 -156.5t160 -56.5h30q43 0 70 8l-115 154l113 88l119 -158q30 55 30 121 v629q0 103 -60 162t-157 59h-32q-97 0 -157 -59t-60 -162v-629z" />
<glyph unicode="R" horiz-adv-x="1007" d="M152 0v1393h395q179 0 277 -92.5t98 -270.5v-98q0 -131 -53.5 -214t-157.5 -112l258 -606h-221l-228 559h-160v-559h-208zM360 735h183q78 3 125 47t47 127v119q0 82 -49 130t-134 48h-172v-471z" />
<glyph unicode="S" horiz-adv-x="929" d="M84 201l129 121q38 -80 108 -118t142 -38q79 0 133.5 50t54.5 134q0 33 -8.5 61.5t-18 47.5t-34.5 42.5t-39.5 34.5t-53 38t-55.5 40q-72 46 -121 84.5t-98 91.5t-74 116t-26 136v10q-1 172 101 264q104 94 268 95q230 0 354 -180l-117 -127q-81 121 -225 121 q-86 0 -135.5 -43.5t-49.5 -132.5q0 -21 2.5 -39t12 -36t15 -30t24 -30t26 -26.5t34 -28t35.5 -26t43 -29.5t44 -30q150 -91 221 -190t72 -230q0 -168 -99 -269t-274 -101q-124 0 -229.5 55.5t-161.5 161.5z" />
<glyph unicode="T" horiz-adv-x="940" d="M25 1206v187h890v-187h-337v-1206h-209v1206h-344z" />
<glyph unicode="U" horiz-adv-x="1165" d="M147 381v1012h207v-1014q0 -103 68 -159t168 -56q94 0 157.5 57t63.5 158v1014h207v-1012q0 -193 -119.5 -297t-308.5 -104q-124 0 -222.5 43t-159.5 135.5t-61 222.5z" />
<glyph unicode="V" horiz-adv-x="923" d="M29 1393h227l201 -1100l211 1100h225l-330 -1393h-213z" />
<glyph unicode="W" horiz-adv-x="1384" d="M57 1393h215l129 -1098l195 1098h188l197 -1100l129 1100h215l-213 -1393h-235l-187 1057l-188 -1057h-236z" />
<glyph unicode="X" horiz-adv-x="935" d="M47 0l293 696l-266 697h223l178 -533l189 533h225l-283 -697l281 -696h-225l-187 530l-201 -530h-227z" />
<glyph unicode="Y" horiz-adv-x="919" d="M47 1393h223l187 -652l190 652h223l-311 -861v-532h-209v535z" />
<glyph unicode="Z" horiz-adv-x="933" d="M78 0v117l516 1087h-496v189h744v-119l-518 -1088h526v-186h-772z" />
<glyph unicode="[" horiz-adv-x="540" d="M152 -332v1725h331v-152h-151v-1425h143v-148h-323z" />
<glyph unicode="\" horiz-adv-x="675" d="M53 1393h189l409 -1393h-186z" />
<glyph unicode="]" horiz-adv-x="536" d="M90 -172h143v1405h-143v160h326v-1715h-326v150z" />
<glyph unicode="^" horiz-adv-x="831" d="M88 872l334 541l319 -539l-125 -43l-196 336l-205 -336z" />
<glyph unicode="_" horiz-adv-x="1089" d="M88 -61h913v-136h-913v136z" />
<glyph unicode="`" horiz-adv-x="505" d="M74 1384l143 89l203 -308l-105 -65z" />
<glyph unicode="a" horiz-adv-x="894" d="M92 262v264l479 97v135q0 60 -29 86t-91 26q-60 0 -134.5 -21t-111.5 -46l-60 153q67 45 161 75t177 30q140 0 216.5 -75.5t76.5 -223.5v-762h-174l-16 92q-49 -61 -98 -79.5t-119 -18.5q-130 0 -203.5 70.5t-73.5 197.5zM297 268q0 -50 33.5 -79t85.5 -29q57 0 104 34.5 t47 98.5v192l-270 -61v-156z" />
<glyph unicode="b" horiz-adv-x="944" d="M111 0v1413h206v-469q37 60 96 90.5t126 30.5q141 0 223 -88.5t82 -241.5v-426q0 -156 -80.5 -240.5t-224.5 -84.5q-69 0 -129 30t-95 92l-28 -106h-176zM317 307q0 -71 48.5 -110t117.5 -39q71 0 111.5 37.5t40.5 109.5v440q0 68 -41 107t-107 39q-73 0 -121.5 -40 t-48.5 -114v-430z" />
<glyph unicode="c" horiz-adv-x="774" d="M86 293v455q0 153 100.5 235t268.5 82q87 0 163 -34t117 -91l-92 -137q-64 76 -168 76q-80 0 -131 -39.5t-51 -114.5v-410q0 -40 16.5 -70.5t43.5 -47.5t57 -25t63 -8h9q97 0 161 61l90 -143q-97 -100 -280 -100q-160 0 -263.5 78.5t-103.5 232.5z" />
<glyph unicode="d" horiz-adv-x="952" d="M98 309v426q0 153 82.5 241.5t225.5 88.5q67 0 125.5 -30.5t95.5 -90.5v469h207v-1413h-177l-30 106q-33 -62 -93.5 -92t-127.5 -30q-144 0 -226 85t-82 240zM307 305q0 -72 41.5 -109.5t112.5 -37.5q68 0 117 39t49 110v430q0 74 -49 114t-121 40q-66 0 -108 -39 t-42 -107v-440z" />
<glyph unicode="e" horiz-adv-x="892" d="M92 322v423q0 140 111 229t256 89q152 0 250.5 -88t99.5 -230v-268h-508v-153q0 -76 59.5 -117t147.5 -41q140 0 217 70l76 -142q-63 -57 -135 -81.5t-170 -24.5q-106 0 -196 36.5t-149 114t-59 183.5zM301 627h309v121q0 60 -43.5 99.5t-107.5 39.5q-66 0 -112 -39 t-46 -103v-118z" />
<glyph unicode="f" horiz-adv-x="540" d="M39 897v147h94v121q0 144 80 220.5t201 76.5q109 0 176 -39l-33 -159q-41 18 -94 18q-56 0 -89.5 -32.5t-33.5 -94.5v-111h178v-147h-178v-897h-207v897h-94z" />
<glyph unicode="g" horiz-adv-x="925" d="M63 -197q0 85 44.5 145t121.5 89q-51 27 -74.5 63t-23.5 90q0 49 27 93t75 75q-137 87 -137 281v86q0 163 101.5 249.5t261.5 86.5q103 0 186 -39l211 70l51 -140l-137 -39q51 -76 51 -184v-100q0 -161 -99 -244.5t-255 -83.5q-49 0 -96 6q-56 -22 -56 -78q0 -71 123 -94 l414 -88v-231q0 -86 -52 -150.5t-132 -95.5t-174 -31h-74q-159 0 -258 68.5t-99 195.5zM264 -176q0 -54 47.5 -82.5t110.5 -28.5h65q65 0 108.5 28t47.5 83v92l-229 51q-150 -19 -150 -143zM307 614q0 -75 42 -116t114 -41q65 0 106 38t41 119v113q-4 75 -46.5 112.5 t-104.5 37.5q-63 0 -107.5 -38t-44.5 -112v-113z" />
<glyph unicode="h" horiz-adv-x="1001" d="M133 0v1413h207v-508q37 73 109 115.5t151 42.5q277 0 277 -320v-743h-209v733q0 68 -33.5 106t-91.5 38q-83 0 -143 -52t-60 -129v-696h-207z" />
<glyph unicode="i" horiz-adv-x="524" d="M154 1243v170h217v-170h-217zM158 0v1044h209v-1044h-209z" />
<glyph unicode="j" horiz-adv-x="544" d="M-57 -246q91 34 139 71t73 104.5t25 179.5v935h209v-956q0 -153 -41 -251t-123.5 -156.5t-228.5 -102.5zM176 1241v172h213v-172h-213z" />
<glyph unicode="k" horiz-adv-x="847" d="M131 0v1413h209v-760h57l205 391h213l-254 -481l279 -563h-211l-228 465h-61v-465h-209z" />
<glyph unicode="l" horiz-adv-x="526" d="M158 0v1413h209v-1413h-209z" />
<glyph unicode="m" horiz-adv-x="1521" d="M133 0v1044h164l14 -133q37 67 113 109.5t158 42.5q196 0 243 -158q42 72 116.5 115t174.5 43q137 0 209 -75t72 -222v-766h-209v723q0 74 -33.5 116t-95.5 42q-82 0 -137.5 -47.5t-55.5 -131.5v-702h-207v731q0 73 -32 111.5t-90 38.5q-72 0 -133.5 -55.5t-61.5 -129.5 v-696h-209z" />
<glyph unicode="n" horiz-adv-x="995" d="M133 0v1044h170l16 -145q99 164 271 164q137 0 207.5 -84t70.5 -242v-737h-206v715q0 79 -34.5 121.5t-97.5 42.5q-68 0 -128 -54t-60 -129v-696h-209z" />
<glyph unicode="o" horiz-adv-x="923" d="M92 297v453q0 144 106 228.5t265 84.5q162 0 264 -84.5t102 -228.5v-453q0 -143 -106 -228t-260 -85t-262.5 85t-108.5 228zM301 301q0 -62 47.5 -98.5t114.5 -36.5q64 0 111 37t47 98v444q0 59 -47 95.5t-111 36.5t-113 -36t-49 -96v-444z" />
<glyph unicode="p" horiz-adv-x="944" d="M109 -451v1495h176l28 -110q35 63 95.5 95t126.5 32q145 0 226 -87t81 -243v-426q0 -153 -82 -239t-225 -86q-67 0 -125 28.5t-95 87.5v-547h-206zM315 303q0 -74 48.5 -113.5t121.5 -39.5q66 0 108 41t42 112v426q0 75 -42.5 115.5t-113.5 40.5q-67 0 -115.5 -40.5 t-48.5 -111.5v-430z" />
<glyph unicode="q" horiz-adv-x="944" d="M98 305v426q0 156 82.5 243t225.5 87q66 0 127 -31t94 -92l30 106h177v-1495h-207v547q-72 -116 -221 -116q-143 0 -225.5 86t-82.5 239zM307 295q0 -67 42 -106t108 -39q72 0 121 39.5t49 113.5v430q0 71 -49 111.5t-117 40.5q-71 0 -112.5 -39t-41.5 -111v-440z" />
<glyph unicode="r" horiz-adv-x="614" d="M137 0v1044h170l27 -167q25 82 77.5 135t127.5 53q42 0 69 -16l-26 -218q-25 7 -68 7q-72 0 -120 -71.5t-48 -170.5v-596h-209z" />
<glyph unicode="s" horiz-adv-x="792" d="M72 106l92 138q86 -92 211 -92q135 0 135 122q0 54 -31.5 91t-124.5 79q-129 54 -188.5 130t-59.5 186q0 78 26.5 138.5t71.5 96t98 53t112 17.5q90 0 157.5 -22t135.5 -72l-76 -146q-31 22 -50.5 33t-57.5 22t-83 11q-60 0 -96.5 -32.5t-36.5 -98.5q0 -52 32 -89.5 t114 -72.5q136 -55 196 -133t60 -186q0 -138 -85 -218.5t-223 -80.5q-95 0 -183.5 31t-145.5 95z" />
<glyph unicode="t" horiz-adv-x="634" d="M55 895v149h117v259h209v-259h160v-149h-160v-614q0 -103 98 -103q45 0 101 25l43 -162q-86 -49 -209 -49q-119 0 -180.5 58t-61.5 188v657h-117z" />
<glyph unicode="u" horiz-adv-x="999" d="M139 295v749h207v-747q0 -65 46 -99t114 -34q69 0 113.5 33.5t44.5 99.5v747h208v-749q0 -150 -104.5 -232.5t-261.5 -82.5q-160 0 -263.5 82t-103.5 233z" />
<glyph unicode="v" horiz-adv-x="856" d="M35 1044h217l184 -786l168 786h217l-286 -1044h-199z" />
<glyph unicode="w" horiz-adv-x="1271" d="M45 1044h207l121 -804l176 804h170l184 -800l117 800h203l-217 -1044h-197l-172 743l-168 -743h-203z" />
<glyph unicode="x" horiz-adv-x="835" d="M16 0l275 514l-258 530h223l162 -391l160 391h229l-262 -530l274 -514h-221l-182 371l-180 -371h-220z" />
<glyph unicode="y" horiz-adv-x="860" d="M37 1044h223l180 -784l160 784h221l-307 -1161q-43 -159 -143.5 -238t-243.5 -81l-23 157q33 1 71.5 17t77.5 55.5t54 93.5l29 84z" />
<glyph unicode="z" horiz-adv-x="757" d="M78 0v125l348 749h-340v170h559v-110l-348 -760h383v-174h-602z" />
<glyph unicode="{" horiz-adv-x="614" d="M127 600l96 109l-53 350q-23 156 58.5 283t240.5 192l82 -100q-112 -58 -162.5 -158t-36.5 -213l45 -365l-80 -92l84 -80l-49 -422q-14 -118 40.5 -217t166.5 -157l-84 -107q-174 77 -250 206.5t-55 283.5l51 397z" />
<glyph unicode="|" horiz-adv-x="458" d="M143 -301v1694h172v-1694h-172z" />
<glyph unicode="}" horiz-adv-x="636" d="M117 -270q124 74 180.5 170.5t42.5 203.5l-49 424l84 78l-82 90l47 367q14 99 -40.5 197.5t-172.5 171.5l72 96q166 -66 252 -196t61 -273l-55 -350l100 -109l-100 -90l55 -397q21 -142 -61.5 -276t-255.5 -208z" />
<glyph unicode="~" horiz-adv-x="804" d="M94 1282q78 133 187 133q47 0 136 -44t128 -44q33 1 53 19t37 49l94 -76q-12 -21 -19.5 -34t-25 -36t-34 -36.5t-41 -24t-50.5 -10.5q-56 0 -144 44t-134 44q-56 0 -99 -70z" />
<glyph unicode="&#xa1;" horiz-adv-x="512" d="M162 -358l28 946h189l29 -946h-246zM170 856v191h227v-191h-227z" />
<glyph unicode="&#xa2;" horiz-adv-x="843" d="M102 293v455q0 148 95.5 230t255.5 87l39 262l141 -22l-43 -258q104 -31 162 -107l-93 -137q-64 76 -167 76q-81 0 -132 -39.5t-51 -114.5v-410q0 -40 16.5 -70.5t43.5 -47.5t57 -25t63 -8q103 -3 170 61l91 -143q-97 -100 -281 -100h-18l-41 -250l-138 22l41 250 q-98 31 -154.5 103.5t-56.5 185.5z" />
<glyph unicode="&#xa3;" horiz-adv-x="1009" d="M113 0v125q84 4 140 26.5t84 64.5t38 91t8 117l-16 170h-246v154h233l-20 237q-4 131 59 227.5t174 145.5t256 51v-186q-137 0 -210.5 -62.5t-69.5 -177.5l22 -235h277v-154h-262q9 -112 14 -148q2 -98 -13.5 -155t-72.5 -107h416v-184h-811z" />
<glyph unicode="&#xa5;" horiz-adv-x="976" d="M78 569v109h252l-252 715h223l186 -652l191 652h223l-260 -715h291v-109h-330l-12 -37v-114h340v-107h-340v-311h-209v311h-301v107h301v117l-12 34h-291z" />
<glyph unicode="&#xa6;" horiz-adv-x="335" d="M96 -221v672h140v-672h-140zM96 743v676h140v-676h-140z" />
<glyph unicode="&#xa7;" horiz-adv-x="1110" d="M86 608q0 81 49 156.5t113 97.5q-55 75 -55 205q0 162 110.5 253t282.5 91q129 0 228 -47t157 -133l-88 -101q-48 64 -125.5 101t-165.5 37q-101 0 -167.5 -55.5t-66.5 -147.5q0 -24 6 -47t14.5 -41.5t25.5 -37t30.5 -32t38 -29.5t40.5 -25.5t45 -24t44.5 -21t46.5 -20.5 t43 -19q78 -37 132 -70t104.5 -80.5t76 -109t25.5 -137.5q0 -89 -37.5 -164t-122.5 -113q62 -77 62 -186q0 -168 -112.5 -264.5t-284.5 -96.5q-129 0 -239 55t-165 148l107 94q32 -64 116 -108.5t172 -44.5q104 0 172 49.5t68 157.5q0 46 -26.5 91t-63 77.5t-95.5 67.5 t-101.5 55t-104.5 47q-70 31 -116.5 60.5t-89 72.5t-63 102.5t-20.5 136.5zM250 610q0 -51 18 -90t57 -69t76 -49t97 -44q176 -78 260 -141q43 6 78.5 50.5t35.5 88.5q0 49 -17.5 86.5t-57.5 69.5t-82 55t-115 56q-141 62 -238 131q-48 -6 -80 -49.5t-32 -94.5z" />
<glyph unicode="&#xa8;" horiz-adv-x="747" d="M104 1196v178h168v-178h-168zM473 1196v178h168v-178h-168z" />
<glyph unicode="&#xa9;" horiz-adv-x="1613" d="M96 715q0 198 94.5 364t258.5 261.5t360 95.5q146 0 277 -56.5t226 -153t150.5 -230t55.5 -281.5t-55.5 -281t-150.5 -228.5t-226 -151.5t-277 -56q-197 0 -360.5 94.5t-258 259.5t-94.5 363zM211 713q0 -166 79.5 -304.5t217.5 -218t303 -79.5q122 0 232.5 47t189.5 127 t125.5 191.5t46.5 236.5t-46.5 237t-126 193t-190 128.5t-233.5 47.5q-165 0 -302.5 -80.5t-216.5 -219.5t-79 -306zM444 651v97q0 137 111.5 234t263.5 97q100 0 170.5 -32t134.5 -107l-80 -98q-36 45 -100 72.5t-125 27.5q-92 0 -158.5 -57t-66.5 -137v-97 q0 -87 68 -141.5t165 -54.5q63 0 126.5 23.5t105.5 64.5l71 -105q-54 -57 -139 -89t-170 -32q-159 0 -268 94t-109 240z" />
<glyph unicode="&#xaa;" horiz-adv-x="700" d="M96 954v140l367 53v29q0 65 -31.5 90.5t-93.5 25.5q-35 0 -85 -15.5t-79 -31.5l-45 105q105 59 215 59q118 0 185 -53.5t67 -163.5v-418h-94l-29 66q-28 -33 -75.5 -51.5t-94.5 -18.5q-92 0 -149.5 50t-57.5 134zM227 958q0 -29 33.5 -49t75.5 -20q44 0 83.5 20.5 t39.5 53.5v92l-232 -33v-64z" />
<glyph unicode="&#xab;" horiz-adv-x="940" d="M96 356l320 369l69 -76l-219 -289l217 -280l-67 -80zM455 356l319 369l68 -76l-217 -289l217 -280l-68 -80z" />
<glyph unicode="&#xac;" horiz-adv-x="909" d="M96 565v135h715v-327h-131v192h-584z" />
<glyph unicode="&#xad;" horiz-adv-x="614" d="M88 500v176h438v-176h-438z" />
<glyph unicode="&#xae;" horiz-adv-x="1613" d="M96 715q0 151 54.5 285t148.5 229.5t226.5 151t283.5 55.5q197 0 359.5 -94.5t256 -260t93.5 -366.5q0 -151 -55 -284.5t-149.5 -228t-226 -149.5t-278.5 -55q-151 0 -283.5 54.5t-226.5 149t-148.5 228t-54.5 285.5zM211 713q0 -127 46 -239t125.5 -191.5t191 -125.5 t237.5 -46q166 0 302 78.5t214 217t78 306.5q0 127 -46 239.5t-125 193t-189.5 127t-235.5 46.5t-236.5 -46.5t-190.5 -127t-125 -193t-46 -239.5zM541 326v776h331q98 0 165 -65.5t67 -162.5v-34q0 -74 -45 -127t-121 -70l199 -317h-150l-188 303h-131v-303h-127zM668 733 h188q49 0 87 28t38 73v36q-2 46 -39 80.5t-86 34.5h-188v-252z" />
<glyph unicode="&#xaf;" horiz-adv-x="923" d="M104 1305v100h713v-100h-713z" />
<glyph unicode="&#xb0;" horiz-adv-x="712" d="M96 1112v72q0 100 74.5 163t183.5 66q109 -3 184.5 -66t75.5 -163v-72q0 -100 -76 -162.5t-184 -62.5q-109 0 -183.5 62.5t-74.5 162.5zM231 1102q1 -42 39.5 -68t83.5 -26q46 0 85.5 26.5t39.5 67.5v96q0 40 -40 68t-85 28q-44 0 -83.5 -28.5t-39.5 -67.5v-96z" />
<glyph unicode="&#xb1;" horiz-adv-x="1107" d="M96 0v133h914v-133h-914zM115 625v143h350v336h156v-336h362v-143h-362v-359h-156v359h-350z" />
<glyph unicode="&#xb2;" horiz-adv-x="774" d="M127 1292q46 50 122.5 84.5t166.5 34.5q117 0 179 -52.5t62 -150.5q0 -133 -168 -219q-6 -3 -28 -15t-29 -16t-25.5 -15t-26 -16.5t-21 -16.5t-19.5 -19.5t-14 -19.5t-12 -23t-5 -25h367v-135h-541v92q0 102 52.5 162t160.5 117q34 15 53 24.5t46 27.5t40 38.5t13 44.5 q0 82 -111 82q-110 0 -201 -84z" />
<glyph unicode="&#xb3;" horiz-adv-x="690" d="M90 815l98 59q15 -44 65 -71t112 -27q57 0 94 19t37 57v29q0 47 -41.5 73.5t-92.5 26.5h-112v113h104q53 0 92 21t39 71v18q0 43 -36 61.5t-87 18.5q-63 0 -109 -23.5t-63 -66.5l-86 68q25 71 104 111t173 40q72 0 128 -17t95 -64t39 -120v-16q0 -64 -39 -104t-90 -54 q53 -16 95 -57t42 -100v-33q0 -55 -21.5 -95t-59.5 -62t-82.5 -32t-98.5 -10q-106 0 -189.5 45t-109.5 121z" />
<glyph unicode="&#xb4;" horiz-adv-x="526" d="M94 1159l209 305l137 -84l-239 -278z" />
<glyph unicode="&#xb6;" horiz-adv-x="1067" d="M96 1040v58q0 126 85.5 209t226.5 86h491v-1393h-119v1286h-170v-1286h-125v760h-77q-138 0 -225 75.5t-87 204.5z" />
<glyph unicode="&#xb7;" horiz-adv-x="397" d="M137 408v225h234v-225h-234z" />
<glyph unicode="&#xb8;" horiz-adv-x="497" d="M109 -164l36 164h127l-26 -94q14 -5 26.5 -10.5t37 -22t41.5 -36t30.5 -52.5t13.5 -72q0 -154 -233 -227l-51 94q141 53 141 125q0 32 -14.5 56.5t-38.5 39.5t-45.5 22.5t-44.5 12.5z" />
<glyph unicode="&#xb9;" horiz-adv-x="550" d="M61 1243v150h379v-701h-161v551h-218z" />
<glyph unicode="&#xba;" horiz-adv-x="751" d="M96 1016v162q0 100 82 166.5t195 66.5t195.5 -66.5t82.5 -166.5v-164q0 -103 -81 -168.5t-197 -65.5q-114 0 -195.5 66.5t-81.5 169.5zM236 1024q6 -119 139 -119q54 0 95.5 27.5t41.5 71.5v182q-3 44 -43.5 71t-93.5 27q-55 0 -97 -28t-42 -72v-160z" />
<glyph unicode="&#xbb;" horiz-adv-x="927" d="M76 80l215 280l-215 289l67 76l320 -369l-320 -356zM432 649l68 76l321 -369l-321 -356l-66 80l215 280z" />
<glyph unicode="&#xbc;" horiz-adv-x="1333" d="M72 1243v150h379v-701h-162v551h-217zM121 0l860 1393h182l-852 -1393h-190zM659 158v96l295 481h205v-456h117v-121h-117v-154h-153v154h-347zM819 279h187v299h-15z" />
<glyph unicode="&#xbd;" horiz-adv-x="1337" d="M72 1243v150h379v-701h-162v551h-217zM94 0l860 1393h183l-852 -1393h-191zM748 592q46 50 122 84.5t166 34.5q117 0 179.5 -52.5t62.5 -150.5q0 -133 -168 -219q-6 -3 -28 -15t-29 -16t-25.5 -15t-26 -16.5t-21 -16.5t-19.5 -19.5t-14 -19.5t-12 -23t-5 -25h366v-135 h-540v92q0 53 14.5 95t46 75t65.5 56.5t87 51.5q33 14 53 24.5t46 28t39 38.5t13 45q0 81 -110 81q-111 0 -201 -83z" />
<glyph unicode="&#xbe;" horiz-adv-x="1423" d="M68 815l98 59q15 -44 64.5 -71t111.5 -27q57 0 94 19t37 57v29q0 47 -41 73.5t-92 26.5h-113v113h105q53 0 92 21t39 71v18q0 43 -36 61.5t-87 18.5q-63 0 -109 -23.5t-63 -66.5l-86 68q25 71 103.5 111t172.5 40q53 0 97.5 -10t83 -32t60.5 -63t22 -96v-16 q0 -64 -39 -104t-90 -54q53 -16 95 -57t42 -100v-33q0 -55 -21.5 -95t-59.5 -62t-82.5 -32t-98.5 -10q-106 0 -189.5 45t-109.5 121zM246 0l860 1393h182l-852 -1393h-190zM774 156v96l295 481h205v-457h117v-120h-117v-154h-154v154h-346zM934 276h186v299h-14z" />
<glyph unicode="&#xbf;" horiz-adv-x="829" d="M63 10q0 22 4.5 43t8.5 36t17 35.5t18.5 29.5t25 29.5t24 25.5t29 28t27.5 25q74 62 106.5 111.5t32.5 124.5v116h203v-145q0 -70 -38.5 -128t-112.5 -124q-33 -30 -49 -45.5t-40 -42.5t-34.5 -51.5t-10.5 -48.5v-82q0 -142 177 -142q63 0 130 31t121 74l82 -148 q-73 -61 -167.5 -103t-192.5 -42q-174 0 -267.5 76.5t-93.5 228.5v88zM317 821v228h265v-228h-265z" />
<glyph unicode="&#xc0;" d="M37 0l379 1407h225l358 -1407h-219l-82 377h-350l-88 -377h-223zM283 1798l143 88l203 -307l-105 -66zM389 551h268l-131 577z" />
<glyph unicode="&#xc1;" d="M37 0l379 1407h225l358 -1407h-219l-82 377h-350l-88 -377h-223zM389 551h268l-131 577zM422 1561l209 305l137 -84l-240 -279z" />
<glyph unicode="&#xc2;" d="M37 0l379 1407h225l358 -1407h-219l-82 377h-350l-88 -377h-223zM248 1587l268 180l272 -184l-67 -86l-203 121l-205 -119zM389 551h268l-131 577z" />
<glyph unicode="&#xc3;" d="M37 0l379 1407h225l358 -1407h-219l-82 377h-350l-88 -377h-223zM201 1602q78 133 186 133q48 0 136.5 -44t127.5 -44q55 2 90 67l95 -76q-12 -21 -19.5 -34t-25 -36t-34 -36.5t-41 -24t-50.5 -10.5q-56 0 -144.5 44t-134.5 44q-55 0 -98 -69zM389 551h268l-131 577z" />
<glyph unicode="&#xc4;" d="M37 0l379 1407h225l358 -1407h-219l-82 377h-350l-88 -377h-223zM252 1544v178h168v-178h-168zM389 551h268l-131 577zM621 1544v178h167v-178h-167z" />
<glyph unicode="&#xc5;" d="M37 0l379 1407h225l358 -1407h-219l-82 377h-350l-88 -377h-223zM360 1659q0 67 46.5 112.5t111.5 45.5t112.5 -45.5t47.5 -112.5q0 -66 -47.5 -113t-112.5 -47t-111.5 47t-46.5 113zM389 551h268l-131 577zM438 1655q0 -34 24 -57t58 -23q33 0 56.5 23.5t23.5 56.5 q0 35 -24 60.5t-56 25.5q-34 0 -58 -25.5t-24 -60.5z" />
<glyph unicode="&#xc6;" horiz-adv-x="1718" d="M23 0l806 1393h760v-187h-481v-403h393v-174h-393v-445h528v-184h-735v352h-434l-203 -352h-241zM547 528h354v650z" />
<glyph unicode="&#xc7;" horiz-adv-x="999" d="M127 369v647q0 179 119.5 288t298.5 109q123 0 209 -36.5t151 -110.5l-102 -144q-100 107 -244 107q-102 0 -162.5 -60t-60.5 -165v-625q0 -105 63.5 -162t167.5 -57q154 0 240 86l94 -135q-58 -63 -131.5 -93.5t-175.5 -35.5l-21 -76q150 -56 150 -193 q0 -80 -62.5 -136.5t-171.5 -90.5l-51 94q142 54 142 125q0 32 -14.5 56.5t-39 39.5t-46 22.5t-44.5 12.5l33 150q-155 19 -248.5 118t-93.5 265z" />
<glyph unicode="&#xc8;" horiz-adv-x="919" d="M154 0v1393h618v-187h-412v-407h304v-181h-304v-434h461v-184h-667zM250 1782l143 88l203 -307l-104 -66z" />
<glyph unicode="&#xc9;" horiz-adv-x="919" d="M154 0v1393h618v-187h-412v-407h304v-181h-304v-434h461v-184h-667zM389 1546l209 305l137 -84l-239 -278z" />
<glyph unicode="&#xca;" horiz-adv-x="919" d="M154 0v1393h618v-187h-412v-407h304v-181h-304v-434h461v-184h-667zM213 1573l268 180l273 -184l-68 -86l-203 121l-204 -119z" />
<glyph unicode="&#xcb;" horiz-adv-x="919" d="M154 0v1393h618v-187h-412v-407h304v-181h-304v-434h461v-184h-667zM217 1528v178h168v-178h-168zM586 1528v178h168v-178h-168z" />
<glyph unicode="&#xcc;" horiz-adv-x="577" d="M55 1782l144 88l202 -307l-104 -66zM182 0v1393h209v-1393h-209z" />
<glyph unicode="&#xcd;" horiz-adv-x="577" d="M182 0v1393h209v-1393h-209zM188 1546l209 305l137 -84l-239 -278z" />
<glyph unicode="&#xce;" horiz-adv-x="577" d="M18 1573l269 180l272 -184l-67 -86l-203 121l-205 -119zM182 0v1393h209v-1393h-209z" />
<glyph unicode="&#xcf;" horiz-adv-x="577" d="M20 1528v178h168v-178h-168zM182 0v1393h209v-1393h-209zM389 1528v178h168v-178h-168z" />
<glyph unicode="&#xd0;" horiz-adv-x="1210" d="M70 623v165h166v625h366q213 0 355.5 -111.5t142.5 -279.5v-625q0 -182 -137 -289.5t-363 -107.5h-364v623h-166zM444 182h156q146 0 218.5 59t72.5 169v600q0 96 -77 156.5t-212 60.5h-156v-439h216v-165h-218v-441z" />
<glyph unicode="&#xd1;" horiz-adv-x="1191" d="M117 0v1393h205l487 -1035v1035h192v-1393h-202l-492 1028v-1028h-190zM274 1585q78 133 187 133q47 0 136 -44t128 -44q33 1 53 19t37 49l94 -76q-12 -21 -19.5 -34t-25 -36t-34 -36.5t-41 -24t-50.5 -10.5q-56 0 -144 44t-134 44q-56 0 -99 -70z" />
<glyph unicode="&#xd2;" horiz-adv-x="1103" d="M115 375v635q0 185 118.5 294t305.5 109h32q186 0 305 -109.5t119 -293.5v-635q0 -186 -116.5 -290.5t-307.5 -104.5h-30q-192 0 -309 104t-117 291zM313 1802l144 88l202 -307l-104 -65zM322 377q0 -100 59 -156.5t160 -56.5h30q98 0 157.5 56.5t59.5 156.5v629 q0 103 -60 162t-157 59h-32q-97 0 -157 -59t-60 -162v-629z" />
<glyph unicode="&#xd3;" horiz-adv-x="1103" d="M115 375v635q0 185 118.5 294t305.5 109h32q186 0 305 -109.5t119 -293.5v-635q0 -186 -116.5 -290.5t-307.5 -104.5h-30q-192 0 -309 104t-117 291zM322 377q0 -100 59 -156.5t160 -56.5h30q98 0 157.5 56.5t59.5 156.5v629q0 103 -60 162t-157 59h-32q-97 0 -157 -59 t-60 -162v-629zM453 1567l209 305l137 -84l-240 -279z" />
<glyph unicode="&#xd4;" horiz-adv-x="1103" d="M115 375v635q0 185 118.5 294t305.5 109h32q186 0 305 -109.5t119 -293.5v-635q0 -186 -116.5 -290.5t-307.5 -104.5h-30q-192 0 -309 104t-117 291zM279 1593l268 181l272 -185l-67 -86l-203 121l-205 -119zM322 377q0 -100 59 -156.5t160 -56.5h30q98 0 157.5 56.5 t59.5 156.5v629q0 103 -60 162t-157 59h-32q-97 0 -157 -59t-60 -162v-629z" />
<glyph unicode="&#xd5;" horiz-adv-x="1103" d="M115 375v635q0 185 118.5 294t305.5 109h32q186 0 305 -109.5t119 -293.5v-635q0 -186 -116.5 -290.5t-307.5 -104.5h-30q-192 0 -309 104t-117 291zM231 1606q78 133 187 133q48 0 137 -44t127 -44q55 2 90 67l94 -76q-12 -21 -19.5 -34t-25 -36t-34 -36.5t-41 -24 t-50.5 -10.5q-56 0 -144 44t-134 44q-56 0 -99 -69zM322 377q0 -100 59 -156.5t160 -56.5h30q98 0 157.5 56.5t59.5 156.5v629q0 103 -60 162t-157 59h-32q-97 0 -157 -59t-60 -162v-629z" />
<glyph unicode="&#xd6;" horiz-adv-x="1103" d="M115 375v635q0 185 118.5 294t305.5 109h32q186 0 305 -109.5t119 -293.5v-635q0 -186 -116.5 -290.5t-307.5 -104.5h-30q-192 0 -309 104t-117 291zM283 1548v178h168v-178h-168zM322 377q0 -100 59 -156.5t160 -56.5h30q98 0 157.5 56.5t59.5 156.5v629q0 103 -60 162 t-157 59h-32q-97 0 -157 -59t-60 -162v-629zM651 1548v178h168v-178h-168z" />
<glyph unicode="&#xd7;" horiz-adv-x="1110" d="M109 0l360 514l-342 490h176l254 -375l260 375h174l-342 -490l361 -514h-185l-268 395l-266 -395h-182z" />
<glyph unicode="&#xd8;" horiz-adv-x="1107" d="M129 -150l111 244q-107 104 -107 281v635q0 185 118.5 294t305.5 109h33q125 0 225 -53l90 199h131l-125 -275q103 -111 103 -274v-635q0 -186 -116.5 -290.5t-307.5 -104.5h-31q-121 0 -219 45l-78 -175h-133zM340 377q0 -19 4 -51l389 854q-56 47 -143 47h-33 q-97 0 -157 -59t-60 -162v-629zM422 201q52 -37 137 -37h31q98 0 157.5 56.5t59.5 156.5v629q0 13 -4 41z" />
<glyph unicode="&#xd9;" horiz-adv-x="1169" d="M147 381v1012h207v-1014q0 -103 68 -159t168 -56q94 0 157.5 57t63.5 158v1014h207v-1012q0 -193 -119.5 -297t-308.5 -104q-124 0 -222.5 43t-159.5 135.5t-61 222.5zM348 1782l144 88l202 -307l-104 -66z" />
<glyph unicode="&#xda;" horiz-adv-x="1167" d="M147 381v1012h207v-1014q0 -103 68 -159t168 -56q94 0 157.5 57t63.5 158v1014h207v-1012q0 -193 -119.5 -297t-308.5 -104q-124 0 -222.5 43t-159.5 135.5t-61 222.5zM485 1546l209 305l137 -84l-239 -278z" />
<glyph unicode="&#xdb;" horiz-adv-x="1167" d="M147 381v1012h207v-1014q0 -103 68 -159t168 -56q94 0 157.5 57t63.5 158v1014h207v-1012q0 -193 -119.5 -297t-308.5 -104q-124 0 -222.5 43t-159.5 135.5t-61 222.5zM311 1573l269 180l272 -184l-68 -86l-202 121l-205 -119z" />
<glyph unicode="&#xdc;" horiz-adv-x="1167" d="M147 381v1012h207v-1014q0 -103 68 -159t168 -56q94 0 157.5 57t63.5 158v1014h207v-1012q0 -193 -119.5 -297t-308.5 -104q-124 0 -222.5 43t-159.5 135.5t-61 222.5zM313 1528v178h168v-178h-168zM682 1528v178h168v-178h-168z" />
<glyph unicode="&#xdd;" horiz-adv-x="944" d="M47 1393h223l187 -652l190 652h223l-311 -861v-532h-209v535zM362 1546l209 305l138 -84l-240 -278z" />
<glyph unicode="&#xde;" horiz-adv-x="962" d="M111 0v1393h208v-267h168q162 0 262.5 -105t100.5 -273v-39q0 -165 -98 -260t-265 -95h-168v-354h-208zM319 541h160q65 0 113.5 47.5t48.5 118.5v41q0 75 -48 135.5t-114 60.5h-160v-403z" />
<glyph unicode="&#xe0;" horiz-adv-x="897" d="M84 262v264l479 97v135q0 60 -29.5 86t-91.5 26q-60 0 -134 -21t-111 -46l-60 153q67 45 161 75t177 30q140 0 216.5 -75.5t76.5 -223.5v-762h-174l-16 92q-49 -61 -98.5 -79.5t-119.5 -18.5q-130 0 -203 70.5t-73 197.5zM184 1485l144 88l202 -307l-104 -66zM289 268 q0 -50 33.5 -79t85.5 -29q57 0 104 34.5t47 98.5v192l-270 -61v-156z" />
<glyph unicode="&#xe1;" horiz-adv-x="897" d="M84 262v264l479 97v135q0 60 -29.5 86t-91.5 26q-60 0 -134 -21t-111 -46l-60 153q67 45 161 75t177 30q140 0 216.5 -75.5t76.5 -223.5v-762h-174l-16 92q-49 -61 -98.5 -79.5t-119.5 -18.5q-130 0 -203 70.5t-73 197.5zM289 268q0 -50 33.5 -79t85.5 -29q57 0 104 34.5 t47 98.5v192l-270 -61v-156zM322 1249l208 305l138 -84l-240 -278z" />
<glyph unicode="&#xe2;" horiz-adv-x="897" d="M84 262v264l479 97v135q0 60 -29.5 86t-91.5 26q-60 0 -134 -21t-111 -46l-60 153q67 45 161 75t177 30q140 0 216.5 -75.5t76.5 -223.5v-762h-174l-16 92q-49 -61 -98.5 -79.5t-119.5 -18.5q-130 0 -203 70.5t-73 197.5zM147 1276l269 180l272 -184l-67 -86l-203 121 l-205 -119zM289 268q0 -50 33.5 -79t85.5 -29q57 0 104 34.5t47 98.5v192l-270 -61v-156z" />
<glyph unicode="&#xe3;" horiz-adv-x="897" d="M84 262v264l479 97v135q0 60 -29.5 86t-91.5 26q-60 0 -134 -21t-111 -46l-60 153q67 45 161 75t177 30q140 0 216.5 -75.5t76.5 -223.5v-762h-174l-16 92q-49 -61 -98.5 -79.5t-119.5 -18.5q-130 0 -203 70.5t-73 197.5zM102 1288q78 133 187 133q47 0 136 -44t128 -44 q33 1 53 19t37 49l94 -76q-12 -21 -19.5 -34t-25 -36t-34 -36.5t-41 -24t-50.5 -10.5q-56 0 -144 44t-134 44q-56 0 -99 -70zM289 268q0 -50 33.5 -79t85.5 -29q57 0 104 34.5t47 98.5v192l-270 -61v-156z" />
<glyph unicode="&#xe4;" horiz-adv-x="897" d="M84 262v264l479 97v135q0 60 -29.5 86t-91.5 26q-60 0 -134 -21t-111 -46l-60 153q67 45 161 75t177 30q140 0 216.5 -75.5t76.5 -223.5v-762h-174l-16 92q-49 -61 -98.5 -79.5t-119.5 -18.5q-130 0 -203 70.5t-73 197.5zM152 1231v178h167v-178h-167zM289 268 q0 -50 33.5 -79t85.5 -29q57 0 104 34.5t47 98.5v192l-270 -61v-156zM520 1231v178h168v-178h-168z" />
<glyph unicode="&#xe5;" horiz-adv-x="897" d="M84 262v264l479 97v135q0 60 -29.5 86t-91.5 26q-60 0 -134 -21t-111 -46l-60 153q67 45 161 75t177 30q140 0 216.5 -75.5t76.5 -223.5v-762h-174l-16 92q-49 -61 -98.5 -79.5t-119.5 -18.5q-130 0 -203 70.5t-73 197.5zM258 1346q0 67 46.5 112t111.5 45t112 -45 t47 -112q0 -66 -47 -113t-112 -47t-111.5 47t-46.5 113zM289 268q0 -50 33.5 -79t85.5 -29q57 0 104 34.5t47 98.5v192l-270 -61v-156zM336 1341q0 -33 24 -56t58 -23q33 0 56.5 23t23.5 56q0 35 -24 60.5t-56 25.5q-34 0 -58 -25.5t-24 -60.5z" />
<glyph unicode="&#xe6;" horiz-adv-x="1376" d="M76 268v224l483 77v138q0 182 -135 182q-55 0 -129.5 -22t-118.5 -44l-43 148q55 40 141 69t166 29q175 0 238 -129q38 62 109.5 96.5t160.5 34.5q68 0 127 -20t106.5 -60t75 -108.5t27.5 -157.5v-170l-502 -70v-147q0 -81 58 -125.5t149 -44.5q67 0 132.5 26.5 t103.5 57.5l75 -137q-59 -63 -144.5 -96t-174.5 -33q-121 0 -210 39.5t-130 121.5q-79 -161 -281 -161q-129 0 -206.5 75.5t-77.5 206.5zM272 274q0 -57 35 -88.5t92 -31.5q64 0 113 33t49 94v165l-289 -49v-123zM782 604l312 43v88q0 80 -41 121t-107 41 q-67 0 -115.5 -49.5t-48.5 -122.5v-121z" />
<glyph unicode="&#xe7;" horiz-adv-x="802" d="M102 293v455q0 153 100.5 235t268.5 82q88 0 164 -34t117 -91l-93 -137q-64 76 -167 76q-81 0 -132 -39.5t-51 -114.5v-410q0 -40 16.5 -70.5t43.5 -47.5t57 -25t63 -8q103 -3 170 61l91 -143q-91 -94 -254 -100l-21 -76q150 -56 150 -193q0 -80 -62.5 -136.5 t-171.5 -90.5l-51 94q141 53 141 125q0 32 -14.5 56.5t-38.5 39.5t-45.5 22.5t-44.5 12.5l35 154q-123 22 -197 97.5t-74 205.5z" />
<glyph unicode="&#xe8;" horiz-adv-x="894" d="M92 322v423q0 140 111 229t256 89q152 0 250.5 -88t99.5 -230v-268h-508v-153q0 -76 59.5 -117t147.5 -41q140 0 217 70l76 -142q-63 -57 -135 -81.5t-170 -24.5q-106 0 -196 36.5t-149 114t-59 183.5zM215 1485l143 88l203 -307l-104 -66zM301 627h309v121 q0 60 -43.5 99.5t-107.5 39.5q-66 0 -112 -39t-46 -103v-118z" />
<glyph unicode="&#xe9;" horiz-adv-x="894" d="M92 322v423q0 140 111 229t256 89q152 0 250.5 -88t99.5 -230v-268h-508v-153q0 -76 59.5 -117t147.5 -41q140 0 217 70l76 -142q-63 -57 -135 -81.5t-170 -24.5q-106 0 -196 36.5t-149 114t-59 183.5zM301 627h309v121q0 60 -43.5 99.5t-107.5 39.5q-66 0 -112 -39 t-46 -103v-118zM350 1249l209 305l137 -84l-239 -278z" />
<glyph unicode="&#xea;" horiz-adv-x="894" d="M92 322v423q0 140 111 229t256 89q152 0 250.5 -88t99.5 -230v-268h-508v-153q0 -76 59.5 -117t147.5 -41q140 0 217 70l76 -142q-63 -57 -135 -81.5t-170 -24.5q-106 0 -196 36.5t-149 114t-59 183.5zM178 1276l268 180l273 -184l-68 -86l-202 121l-205 -119zM301 627 h309v121q0 60 -43.5 99.5t-107.5 39.5q-66 0 -112 -39t-46 -103v-118z" />
<glyph unicode="&#xeb;" horiz-adv-x="894" d="M92 322v423q0 140 111 229t256 89q152 0 250.5 -88t99.5 -230v-268h-508v-153q0 -76 59.5 -117t147.5 -41q140 0 217 70l76 -142q-63 -57 -135 -81.5t-170 -24.5q-106 0 -196 36.5t-149 114t-59 183.5zM180 1231v178h168v-178h-168zM301 627h309v121q0 60 -43.5 99.5 t-107.5 39.5q-66 0 -112 -39t-46 -103v-118zM549 1231v178h168v-178h-168z" />
<glyph unicode="&#xec;" horiz-adv-x="514" d="M16 1466l144 88l202 -307l-104 -65zM143 0v1053h207v-1053h-207z" />
<glyph unicode="&#xed;" horiz-adv-x="514" d="M143 0v1053h207v-1053h-207zM147 1229l209 305l137 -84l-239 -278z" />
<glyph unicode="&#xee;" horiz-adv-x="514" d="M-20 1257l268 181l272 -185l-67 -86l-203 121l-205 -119zM143 0v1053h207v-1053h-207z" />
<glyph unicode="&#xef;" horiz-adv-x="514" d="M-19 1212v178h168v-178h-168zM143 0v1053h207v-1053h-207zM350 1212v178h168v-178h-168z" />
<glyph unicode="&#xf0;" horiz-adv-x="991" d="M104 1389l82 151q214 -59 367 -186l250 114l53 -104l-211 -96q103 -119 160 -268.5t57 -313.5v-379q0 -146 -107.5 -236.5t-271.5 -90.5q-157 0 -264.5 91t-107.5 236v344q0 140 89 234t232 94q59 0 119.5 -23t95.5 -65q-45 171 -201 307l-276 -123l-49 103l219 98 q-117 87 -236 113zM319 328q0 -71 48.5 -117.5t117.5 -46.5q71 0 121.5 46.5t50.5 117.5v280q0 80 -52 132.5t-122 52.5q-69 0 -116.5 -46.5t-47.5 -115.5v-303z" />
<glyph unicode="&#xf1;" horiz-adv-x="995" d="M133 0v1044h170l16 -145q99 164 271 164q137 0 207.5 -84t70.5 -242v-737h-206v715q0 79 -34.5 121.5t-97.5 42.5q-68 0 -128 -54t-60 -129v-696h-209zM180 1288q78 133 187 133q47 0 136 -44t128 -44q33 1 53 19t37 49l94 -76q-12 -21 -19.5 -34t-25 -36t-34 -36.5 t-41 -24t-50.5 -10.5q-56 0 -144 44t-134 44q-56 0 -99 -70z" />
<glyph unicode="&#xf2;" horiz-adv-x="925" d="M92 297v453q0 144 106 228.5t265 84.5q162 0 264 -84.5t102 -228.5v-453q0 -143 -106 -228t-260 -85t-262.5 85t-108.5 228zM225 1485l144 88l202 -307l-104 -66zM301 301q0 -62 47.5 -98.5t114.5 -36.5q64 0 111 37t47 98v444q0 59 -47 95.5t-111 36.5t-113 -36t-49 -96 v-444z" />
<glyph unicode="&#xf3;" horiz-adv-x="925" d="M92 297v453q0 144 106 228.5t265 84.5q162 0 264 -84.5t102 -228.5v-453q0 -143 -106 -228t-260 -85t-262.5 85t-108.5 228zM301 301q0 -62 47.5 -98.5t114.5 -36.5q64 0 111 37t47 98v444q0 59 -47 95.5t-111 36.5t-113 -36t-49 -96v-444zM362 1249l209 305l138 -84 l-240 -278z" />
<glyph unicode="&#xf4;" horiz-adv-x="925" d="M92 297v453q0 144 106 228.5t265 84.5q162 0 264 -84.5t102 -228.5v-453q0 -143 -106 -228t-260 -85t-262.5 85t-108.5 228zM188 1276l269 180l272 -184l-67 -86l-203 121l-205 -119zM301 301q0 -62 47.5 -98.5t114.5 -36.5q64 0 111 37t47 98v444q0 59 -47 95.5 t-111 36.5t-113 -36t-49 -96v-444z" />
<glyph unicode="&#xf5;" horiz-adv-x="925" d="M92 297v453q0 144 106 228.5t265 84.5q162 0 264 -84.5t102 -228.5v-453q0 -143 -106 -228t-260 -85t-262.5 85t-108.5 228zM141 1288q78 133 187 133q48 0 137 -44t127 -44q33 1 53 19t37 49l94 -76q-12 -21 -19.5 -34t-25 -36t-34 -36.5t-41 -24t-50.5 -10.5 q-56 0 -144 44t-134 44q-56 0 -99 -70zM301 301q0 -62 47.5 -98.5t114.5 -36.5q64 0 111 37t47 98v444q0 59 -47 95.5t-111 36.5t-113 -36t-49 -96v-444z" />
<glyph unicode="&#xf6;" horiz-adv-x="925" d="M92 297v453q0 144 106 228.5t265 84.5q162 0 264 -84.5t102 -228.5v-453q0 -143 -106 -228t-260 -85t-262.5 85t-108.5 228zM193 1231v178h167v-178h-167zM301 301q0 -62 47.5 -98.5t114.5 -36.5q64 0 111 37t47 98v444q0 59 -47 95.5t-111 36.5t-113 -36t-49 -96v-444z M561 1231v178h168v-178h-168z" />
<glyph unicode="&#xf7;" horiz-adv-x="1372" d="M96 506v135h1178v-135h-1178zM573 137v217h224v-217h-224zM573 782v219h224v-219h-224z" />
<glyph unicode="&#xf8;" horiz-adv-x="1017" d="M39 -106l141 229q-55 74 -55 174v453q0 144 106 228.5t265 84.5q134 0 231 -62l86 140h113l-125 -205q61 -77 61 -186v-453q0 -143 -106 -228t-260 -85q-141 0 -242 67l-96 -157h-119zM334 369l284 460q-45 48 -122 48q-64 0 -113 -36t-49 -96v-376zM360 223 q45 -57 136 -57q64 0 110.5 37t46.5 98v397z" />
<glyph unicode="&#xf9;" horiz-adv-x="1001" d="M139 295v749h207v-747q0 -65 46 -99t114 -34q69 0 113.5 33.5t44.5 99.5v747h208v-749q0 -150 -104.5 -232.5t-261.5 -82.5q-160 0 -263.5 82t-103.5 233zM272 1466l144 88l202 -307l-104 -65z" />
<glyph unicode="&#xfa;" horiz-adv-x="1001" d="M139 295v749h207v-747q0 -65 46 -99t114 -34q69 0 113.5 33.5t44.5 99.5v747h208v-749q0 -150 -104.5 -232.5t-261.5 -82.5q-160 0 -263.5 82t-103.5 233zM410 1229l208 305l138 -84l-240 -279z" />
<glyph unicode="&#xfb;" horiz-adv-x="1001" d="M139 295v749h207v-747q0 -65 46 -99t114 -34q69 0 113.5 33.5t44.5 99.5v747h208v-749q0 -150 -104.5 -232.5t-261.5 -82.5q-160 0 -263.5 82t-103.5 233zM233 1257l269 181l272 -185l-67 -86l-203 121l-205 -119z" />
<glyph unicode="&#xfc;" horiz-adv-x="1001" d="M139 295v749h207v-747q0 -65 46 -99t114 -34q69 0 113.5 33.5t44.5 99.5v747h208v-749q0 -150 -104.5 -232.5t-261.5 -82.5q-160 0 -263.5 82t-103.5 233zM238 1212v179h168v-179h-168zM606 1212v179h168v-179h-168z" />
<glyph unicode="&#xfd;" horiz-adv-x="858" d="M39 1044h223l180 -784l160 784h221l-307 -1161q-43 -159 -143.5 -238t-243.5 -81l-23 157q33 1 71.5 17t77.5 55.5t54 93.5l29 84zM328 1241l209 305l137 -84l-240 -278z" />
<glyph unicode="&#xfe;" horiz-adv-x="1052" d="M150 -467v1878h208v-467q94 127 240 127q143 0 235.5 -91t92.5 -235v-434q0 -146 -92.5 -238.5t-235.5 -92.5q-169 0 -250 118v-565h-198zM373 338q0 -82 52.5 -134t129.5 -52q67 0 115.5 47.5t48.5 124.5v405q0 77 -47 122.5t-117 45.5q-75 0 -128.5 -53t-53.5 -133 v-373z" />
<glyph unicode="&#xff;" horiz-adv-x="882" d="M51 1044h223l181 -784l159 784h222l-308 -1161q-43 -159 -143.5 -238t-243.5 -81l-22 157q33 1 71.5 17t77.5 55.5t54 93.5l28 84zM174 1214v179h168v-179h-168zM543 1214v179h168v-179h-168z" />
<glyph unicode="&#x152;" horiz-adv-x="1753" d="M113 401v588q0 78 40.5 152t108 128.5t160 88t190.5 33.5h889v-187h-444v-391h356v-180h-354v-449h489v-184h-934q-136 0 -251 53t-182.5 145.5t-67.5 202.5zM322 422q3 -99 88 -168.5t204 -69.5h234v1020h-236q-107 0 -198.5 -74.5t-91.5 -162.5v-545z" />
<glyph unicode="&#x153;" horiz-adv-x="1439" d="M90 315v437q0 144 96.5 231.5t251.5 87.5q104 0 193 -40t129 -124q44 76 117 122t161 46q164 0 273.5 -91.5t109.5 -262.5v-186l-538 -93v-120q0 -76 66.5 -119t152.5 -43q61 0 134 23t114 55l84 -132q-65 -55 -156 -83.5t-184 -28.5q-245 0 -336 168 q-40 -87 -126.5 -128.5t-191.5 -41.5q-154 0 -252 89t-98 234zM299 328q0 -65 50.5 -109.5t121.5 -44.5t125 43.5t55 106.5v419q-4 64 -57.5 107t-124.5 43t-120.5 -44t-49.5 -108v-413zM881 588l331 61l-2 70q0 75 -45 124.5t-108 49.5q-68 -3 -119.5 -48.5t-54.5 -111.5z " />
<glyph unicode="&#x178;" horiz-adv-x="929" d="M51 1393h223l187 -652l190 652h223l-311 -861v-532h-209v535zM195 1528v178h167v-178h-167zM563 1528v178h168v-178h-168z" />
<glyph unicode="&#x2c6;" horiz-adv-x="716" d="M88 1260l268 180l273 -185l-68 -86l-203 121l-204 -119z" />
<glyph unicode="&#x2dc;" horiz-adv-x="839" d="M98 1282q78 133 187 133q47 0 136 -44t128 -44q33 1 53 19t37 49l94 -76q-12 -21 -19.5 -34t-25 -36t-34 -36.5t-41 -24t-50.5 -10.5q-56 0 -144 44t-134 44q-56 0 -99 -70z" />
<glyph unicode="&#x2000;" horiz-adv-x="945" />
<glyph unicode="&#x2001;" horiz-adv-x="1890" />
<glyph unicode="&#x2002;" horiz-adv-x="945" />
<glyph unicode="&#x2003;" horiz-adv-x="1890" />
<glyph unicode="&#x2004;" horiz-adv-x="630" />
<glyph unicode="&#x2005;" horiz-adv-x="472" />
<glyph unicode="&#x2006;" horiz-adv-x="315" />
<glyph unicode="&#x2007;" horiz-adv-x="315" />
<glyph unicode="&#x2008;" horiz-adv-x="236" />
<glyph unicode="&#x2009;" horiz-adv-x="378" />
<glyph unicode="&#x200a;" horiz-adv-x="105" />
<glyph unicode="&#x2010;" horiz-adv-x="614" d="M88 500v176h438v-176h-438z" />
<glyph unicode="&#x2011;" horiz-adv-x="614" d="M88 500v176h438v-176h-438z" />
<glyph unicode="&#x2012;" horiz-adv-x="614" d="M88 500v176h438v-176h-438z" />
<glyph unicode="&#x2013;" horiz-adv-x="1163" d="M6 541v112h1139v-112h-1139z" />
<glyph unicode="&#x2014;" horiz-adv-x="1591" d="M8 539v114h1571v-114h-1571z" />
<glyph unicode="&#x2018;" horiz-adv-x="278" d="M29 1012v55q0 265 147 387l88 -57q-53 -90 -53 -262v-123h-182z" />
<glyph unicode="&#x2019;" horiz-adv-x="288" d="M0 1073q38 56 57 111.5t19 146.5v119h178v-53q0 -79 -12 -142t-35.5 -108.5t-44 -73.5t-51.5 -59z" />
<glyph unicode="&#x201a;" horiz-adv-x="458" d="M160 -205q38 56 57 111.5t19 146.5v119h178v-53q0 -79 -12 -142t-36 -108.5t-44.5 -73t-51.5 -59.5z" />
<glyph unicode="&#x201c;" horiz-adv-x="559" d="M29 1012v55q0 265 147 387l88 -57q-53 -90 -53 -262v-123h-182zM307 1012v55q0 264 148 387l88 -57q-54 -92 -54 -262v-123h-182z" />
<glyph unicode="&#x201d;" horiz-adv-x="575" d="M0 1065q38 56 57 111.5t19 146.5v119h178v-53q0 -79 -12 -142t-35.5 -108.5t-44 -73.5t-51.5 -59zM285 1065q38 55 56.5 111t18.5 147v119h179v-53q0 -79 -12 -142t-36 -108.5t-44.5 -73t-51.5 -59.5z" />
<glyph unicode="&#x201e;" horiz-adv-x="817" d="M160 -203q38 56 57 111.5t19 146.5v119h178v-53q0 -79 -12 -142t-36 -108.5t-44.5 -73t-51.5 -59.5zM487 -201q38 56 57 111.5t19 146.5v119h178v-53q0 -79 -12 -142t-35.5 -108.5t-44 -73.5t-51.5 -59z" />
<glyph unicode="&#x2022;" horiz-adv-x="679" d="M147 350v385h383v-385h-383z" />
<glyph unicode="&#x2026;" horiz-adv-x="1533" d="M147 0v227h222v-227h-222zM653 0v227h224v-227h-224zM1161 0v227h223v-227h-223z" />
<glyph unicode="&#x202f;" horiz-adv-x="378" />
<glyph unicode="&#x2039;" horiz-adv-x="581" d="M86 356l303 369l113 -76l-217 -289l215 -280l-111 -80z" />
<glyph unicode="&#x203a;" horiz-adv-x="581" d="M78 649l115 76l303 -369l-303 -356l-113 80l215 280z" />
<glyph unicode="&#x205f;" horiz-adv-x="472" />
<glyph unicode="&#x20ac;" horiz-adv-x="1335" d="M96 524v113h166v133h-166v113h166v133q0 179 119.5 288t298.5 109q123 0 209 -36.5t151 -110.5l-102 -144q-100 107 -244 107q-102 0 -162.5 -60t-60.5 -165v-121h510v-113h-510v-133h510v-113h-510v-145q0 -105 63.5 -162t167.5 -57q154 0 240 86l94 -135 q-64 -69 -148.5 -100t-205.5 -31q-186 0 -303 101t-117 288v155h-166z" />
<glyph unicode="&#x2122;" horiz-adv-x="1110" d="M76 1341v93h377v-93h-142v-342h-96v342h-139zM537 1004v430h98l115 -197l118 197h99v-430h-97v270l-100 -168h-41l-96 170v-272h-96z" />
<glyph unicode="&#x25fc;" horiz-adv-x="1044" d="M0 0v1044h1044v-1044h-1044z" />
<glyph unicode="&#xfb03;" horiz-adv-x="1609" d="M45 907v148h115v133q0 142 117.5 218.5t295.5 76.5q151 0 312 -60q114 60 266 60q149 0 319 -62l-32 -147q-27 4 -73 13t-87 13.5t-94 4.5q-240 0 -240 -152v-98h217v-148h-217v-907h-207v907h-114v148h114v133q0 58 21 104q-89 13 -152 13q-239 0 -239 -152v-98h217 v-148h-217v-907h-207v907h-115zM1276 0v1053h207v-1053h-207z" />
<glyph unicode="&#xfb04;" horiz-adv-x="1740" d="M68 907v148h114v133q0 96 58 164t149.5 99.5t206.5 31.5q149 0 319 -62l-2 -4q109 66 279 66q149 0 319 -62l-2 -8h97v-1413h-209v1288q-100 17 -172 17q-240 0 -240 -152v-98h217v-148h-217v-907h-207v907h-114v148h114v133q0 54 19 100q-100 17 -168 17 q-240 0 -240 -152v-98h217v-148h-217v-907h-207v907h-114z" />
</font>
</defs>
</svg>
